<?xml version="1.0" encoding="UTF-8"?>
<!-- Generator: Adobe Illustrator 18.1.0, SVG Export Plug-In . SVG Version: 6.00 Build 0)  -->
<svg version="1.0" id="Layer_1" xmlns="http://www.w3.org/2000/svg" xmlns:xlink="http://www.w3.org/1999/xlink" x="0px" y="0px" viewBox="0 0 58.2 58.2" enable-background="new 0 0 58.2 58.2" xml:space="preserve">
<path fill="#FFFFFF" d="M39.4,29.1L57.5,11c1-0.9,1-2.5,0-3.4l-6.9-6.9c-0.9-1-2.5-1-3.4,0L29.1,18.8L11,0.7c-0.9-1-2.5-0.9-3.4,0  L0.7,7.6c-1,0.9-1,2.5,0,3.4l18.1,18.1L0.7,47.1c-1,0.9-1,2.5,0,3.4l6.9,6.9c0.9,1,2.5,0.9,3.4,0l18.1-18.1l18.1,18.1  c0.9,1,2.5,1,3.4,0l6.9-6.9c1-0.9,1-2.5,0-3.4L39.4,29.1z"/>
</svg>